<svg xmlns="http://www.w3.org/2000/svg" xmlns:xlink="http://www.w3.org/1999/xlink" style="width: 0; height: 0; visibility: hidden; position: absolute;" aria-hidden="true"><symbol  viewBox='0 0 291.3 291.3' id='facebook'>
    <path d="M145.7 0a145.7 145.7 0 1 1 0 291.3 145.7 145.7 0 0 1 0-291.3z" fill="#3b5998"></path><path d="M163.4 100.3h18.8V72.5H160v.1c-26.7 1-32.2 16-32.7 31.8v13.9H109v27.1h18.2v72.8h27.5v-72.8h22.5l4.3-27.1h-26.8v-8.4c0-5.3 3.5-9.6 8.6-9.6z" fill="#fff"></path>
  </symbol><symbol  viewBox='0 0 291.3 291.3' id='instagram'>
    <path d="M145.7 0a145.7 145.7 0 1 1 0 291.3 145.7 145.7 0 0 1 0-291.3z" fill="#3f729b"></path><path d="M196 63.7H95.3a31.7 31.7 0 0 0-31.7 31.7v100.5a31.7 31.7 0 0 0 31.7 31.7h100.5a31.7 31.7 0 0 0 31.7-31.7V95.4A31.7 31.7 0 0 0 196 63.7zM206 82h3.5v27.2l-27.4.1-.1-27.2h24zm-60.3 36.2c22.7 0 27.4 21.4 27.4 27.5a27.5 27.5 0 0 1-54.9 0c0-6.1 4.7-27.5 27.5-27.5zm64 75.8c0 8.6-7 15.7-15.8 15.7H97.1c-8.7 0-15.7-7-15.7-15.7v-66.6H104a52.2 52.2 0 0 0-3.3 18.3 44.9 44.9 0 0 0 89.6 0c0-6-1.2-13-3.3-18.3h22.5V194z" fill="#fff"></path>
  </symbol><symbol  viewBox='0 0 291.3 291.3' id='linkedin'>
    <path d="M145.7 0a145.7 145.7 0 1 1 0 291.3 145.7 145.7 0 0 1 0-291.3z" fill="#0e76a8"></path><path d="M82 200.1h27.4v-90.9H82v91zm106.3-94a41 41 0 0 0-33.4 15.5v-12.7h-27.4v91.2h27.4v-49.3c0-10.4 9.5-20.6 21.5-20.6s14.9 10.2 14.9 20.4V200h27.3v-51.6c0-35.8-17-42.4-30.3-42.4zm-92.7-6a13.7 13.7 0 1 0 0-27.3 13.7 13.7 0 0 0 0 27.3z" fill="#fff"></path>
  </symbol><symbol  viewBox='0 0 112.2 112.2' id='twitter'>
    <circle cx="56.1" cy="56.1" r="56.1" fill="#55acee"></circle><path d="M90.5 40.3c-2.4 1-5 1.8-7.7 2.1 2.7-1.6 4.9-4.3 5.9-7.4a26.8 26.8 0 0 1-8.6 3.3 13.4 13.4 0 0 0-22.8 12.2 38 38 0 0 1-27.6-14 13.4 13.4 0 0 0 4.1 17.9 12 12 0 0 1-6-1.7v.2c0 6.5 4.6 11.9 10.7 13.1a13.4 13.4 0 0 1-6 .3A13 13 0 0 0 45 75.6 26.9 26.9 0 0 1 25 81c6 3.8 13 6 20.6 6a37.9 37.9 0 0 0 38-39.8c2.7-2 5-4.3 6.8-7z" fill="#f1f2f2"></path>
  </symbol><symbol  viewBox='0 0 291.3 291.3' id='vimeo'>
    <path d="M145.7 0a145.7 145.7 0 1 1 0 291.3 145.7 145.7 0 0 1 0-291.3z" fill="#86c9ef"></path><path d="M63.7 118.3c13.6-10.8 33-34.7 48.1-34.7 15.1 0 18.8 17.8 20.9 34 2 16.1 8 51.5 16 51.5s26.1-31.3 25.1-43.4c-1-12-14.2-10.2-21.4-6.8 6.6-24.1 22-37 41.7-37 19.7 0 24.4 14 24.4 31 0 26-52.7 105.6-84.5 105.6-19.7 0-24.5-29-28.5-43.4-4-14.3-11.9-52-21-54.3-3.6-.6-13.7 7.3-13.7 7.3l-7-9.8z" fill="#fff"></path>
  </symbol></svg>